<?xml version="1.0" encoding="UTF-8"?>
<!DOCTYPE svg PUBLIC "-//W3C//DTD SVG 1.1//EN" "http://www.w3.org/Graphics/SVG/1.1/DTD/svg11.dtd">
<!-- Creator: CorelDRAW 2019 (64-Bit) -->
<svg xmlns="http://www.w3.org/2000/svg" xml:space="preserve" width="3.3887in" height="5.0666in" version="1.1" style="shape-rendering:geometricPrecision; text-rendering:geometricPrecision; image-rendering:optimizeQuality; fill-rule:evenodd; clip-rule:evenodd"
viewBox="0 0 987.3 1476.16"
 xmlns:xlink="http://www.w3.org/1999/xlink"
 xmlns:svgjs="http://svgjs.com/svgjs">
 <defs>
  <style type="text/css">
   <![CDATA[
    .fil0 {fill:white}
   ]]>
  </style>
 </defs>
 <g id="Layer_x0020_1">
  <metadata id="CorelCorpID_0Corel-Layer"/>
  <g id="_1847279085728">
   <g>
    <g id="surface1">
     <path fill="#000" class="fil0" d="M256.75 1476.16c-164.09,-540.72 182.63,-738.14 182.63,-738.14 -24.26,288.53 139.71,513.31 139.71,513.31 60.3,-18.19 175.4,-103.23 175.4,-103.23 0,103.23 -60.73,327.93 -60.73,327.93 0,0 212.61,-164.4 279.54,-437.44 66.84,-273.05 -127.32,-547.17 -127.32,-547.17 11.7,193.26 -53.68,383.33 -181.77,528.54 6.41,-7.4 11.79,-15.61 15.92,-24.52 23.01,-46.02 59.96,-165.64 38.32,-442.64 -30.45,-388.84 -382.77,-552.8 -382.77,-552.8 30.37,236.92 -60.69,291.5 -273.99,741.2 -213.3,449.61 195.06,734.96 195.06,734.96zm0 0z" data-original="#000000"/>
    </g>
   </g>
  </g>
 </g>
</svg>
